<svg width="28" height="28" viewBox="0 0 28 28" fill="none" xmlns="http://www.w3.org/2000/svg">
<path d="M25.2933 18.0506C23.6097 18.0506 21.9565 17.7873 20.39 17.2696C19.6223 17.0077 18.6787 17.2479 18.2102 17.7291L15.1181 20.0633C11.5321 18.1491 9.32326 15.941 7.43522 12.3819L9.70074 9.37041C10.2893 8.7826 10.5005 7.92394 10.2475 7.11828C9.7276 5.54347 9.46348 3.89111 9.46348 2.20673C9.46356 0.989928 8.47363 0 7.2569 0H2.20665C0.989926 0 0 0.989928 0 2.20666C0 16.1536 11.3464 27.5 25.2933 27.5C26.5101 27.5 27.5 26.5101 27.5 25.2933V20.2572C27.4999 19.0405 26.51 18.0506 25.2933 18.0506Z" fill="white"/>
</svg>
