<svg width="30" height="30" viewBox="0 0 30 30" fill="none" xmlns="http://www.w3.org/2000/svg">
<circle cx="15" cy="15" r="15" fill="#101010"/>
<path d="M15.0769 6.74272C11.6601 6.74272 8.41551 6.43902 7.1762 9.61711C6.66429 10.9297 6.73863 12.6344 6.73863 15.0753C6.73863 17.2173 6.66994 19.2304 7.1762 20.5326C8.41268 23.7126 11.6836 23.408 15.075 23.408C18.3469 23.408 21.7204 23.7483 22.9748 20.5326C23.4876 19.2069 23.4124 17.5276 23.4124 15.0753C23.4124 11.8201 23.5921 9.71866 22.0121 8.14089C20.4124 6.54245 18.249 6.74272 15.0731 6.74272H15.0769ZM14.3297 8.24432C21.4569 8.23304 22.3641 7.44134 21.8635 18.4396C21.6856 22.3295 18.7214 21.9026 15.0778 21.9026C8.43433 21.9026 8.2433 21.7127 8.2433 15.0716C8.2433 8.35339 8.77027 8.24808 14.3297 8.24244V8.24432ZM19.5279 9.62745C18.9755 9.62745 18.5276 10.075 18.5276 10.627C18.5276 11.1789 18.9755 11.6265 19.5279 11.6265C20.0803 11.6265 20.5282 11.1789 20.5282 10.627C20.5282 10.075 20.0803 9.62745 19.5279 9.62745ZM15.0769 10.7962C12.7122 10.7962 10.7953 12.7125 10.7953 15.0753C10.7953 17.4382 12.7122 19.3535 15.0769 19.3535C17.4417 19.3535 19.3576 17.4382 19.3576 15.0753C19.3576 12.7125 17.4417 10.7962 15.0769 10.7962ZM15.0769 12.2978C18.7515 12.2978 18.7563 17.8529 15.0769 17.8529C11.4032 17.8529 11.3976 12.2978 15.0769 12.2978Z" fill="#BD2D43"/>
</svg>
