<svg width="30" height="30" viewBox="0 0 30 30" fill="none" xmlns="http://www.w3.org/2000/svg">
<circle cx="15" cy="15" r="15" fill="#101010"/>
<path d="M5.64584 14.7819L9.41151 16.1874L10.8691 20.8749C10.9623 21.1751 11.3294 21.286 11.5731 21.0868L13.6721 19.3756C13.8922 19.1964 14.2056 19.1874 14.4355 19.3543L18.2214 22.103C18.4821 22.2925 18.8514 22.1496 18.9168 21.8347L21.6902 8.49412C21.7615 8.15005 21.4234 7.86302 21.0958 7.98973L5.64142 13.9516C5.26004 14.0987 5.26336 14.6386 5.64584 14.7819ZM10.6342 15.4392L17.9937 10.9065C18.1259 10.8253 18.262 11.0041 18.1484 11.1095L12.0747 16.7553C11.8612 16.954 11.7235 17.22 11.6845 17.5087L11.4776 19.0419C11.4502 19.2466 11.1626 19.267 11.1061 19.0688L10.3104 16.2729C10.2193 15.954 10.3521 15.6133 10.6342 15.4392Z" fill="#BD2D43"/>
</svg>
