<svg width="30" height="30" viewBox="0 0 30 30" fill="none" xmlns="http://www.w3.org/2000/svg">
<circle cx="15" cy="15" r="15" fill="#101010"/>
<path fill-rule="evenodd" clip-rule="evenodd" d="M20.5091 9.35413C19.0271 7.86315 17.0561 7.04168 14.9564 7.0408C10.6297 7.0408 7.10836 10.5792 7.10661 14.9282C7.10603 16.3184 7.46745 17.6755 8.15441 18.8717L7.04077 22.9592L11.2021 21.8623C12.3487 22.4908 13.6395 22.822 14.9532 22.8224H14.9565C19.2827 22.8224 22.8044 19.2837 22.8061 14.9345C22.8069 12.8268 21.9912 10.845 20.5091 9.35413ZM14.9564 21.4902H14.9537C13.783 21.4898 12.6349 21.1736 11.633 20.5764L11.3949 20.4342L8.92548 21.0852L9.58459 18.6659L9.42941 18.4178C8.77629 17.3739 8.43141 16.1674 8.43199 14.9287C8.43335 11.3139 11.3602 8.37303 14.959 8.37303C16.7017 8.37362 18.3398 9.05644 19.5716 10.2957C20.8034 11.5349 21.4814 13.1822 21.4808 14.934C21.4792 18.5491 18.5526 21.4902 14.9564 21.4902ZM18.5351 16.58C18.3391 16.4813 17.3747 16.0046 17.1949 15.9387C17.0152 15.873 16.8843 15.8402 16.7537 16.0374C16.6229 16.2347 16.2471 16.6787 16.1326 16.8101C16.0181 16.9417 15.9038 16.9582 15.7076 16.8595C15.5115 16.7609 14.8795 16.5527 14.1303 15.8812C13.5473 15.3586 13.1537 14.7132 13.0392 14.5159C12.9249 14.3185 13.0382 14.2221 13.1252 14.1137C13.3376 13.8488 13.5502 13.571 13.6155 13.4395C13.681 13.308 13.6482 13.1928 13.5991 13.0942C13.5502 12.9956 13.1579 12.0255 12.9945 11.6307C12.8352 11.2466 12.6736 11.2985 12.5532 11.2924C12.4389 11.2867 12.3081 11.2855 12.1772 11.2855C12.0465 11.2855 11.834 11.3348 11.6542 11.5322C11.4744 11.7295 10.9678 12.2063 10.9678 13.1764C10.9678 14.1465 11.6706 15.0837 11.7686 15.2153C11.8667 15.3468 13.1517 17.3376 15.1192 18.1912C15.5872 18.3945 15.9525 18.5156 16.2374 18.6065C16.7073 18.7565 17.1347 18.7353 17.4728 18.6846C17.8496 18.628 18.6331 18.2078 18.7967 17.7474C18.9601 17.287 18.9601 16.8924 18.911 16.8101C18.862 16.7279 18.7312 16.6787 18.5351 16.58Z" fill="white"/>
<path fill-rule="evenodd" clip-rule="evenodd" d="M20.5091 9.35413C19.0271 7.86315 17.0561 7.04168 14.9564 7.0408C10.6297 7.0408 7.10836 10.5792 7.10661 14.9282C7.10603 16.3184 7.46745 17.6755 8.15441 18.8717L7.04077 22.9592L11.2021 21.8623C12.3487 22.4908 13.6395 22.822 14.9532 22.8224H14.9565C19.2827 22.8224 22.8044 19.2837 22.8061 14.9345C22.8069 12.8268 21.9912 10.845 20.5091 9.35413ZM14.9564 21.4902H14.9537C13.783 21.4898 12.6349 21.1736 11.633 20.5764L11.3949 20.4342L8.92548 21.0852L9.58459 18.6659L9.42941 18.4178C8.77629 17.3739 8.43141 16.1674 8.43199 14.9287C8.43335 11.3139 11.3602 8.37303 14.959 8.37303C16.7017 8.37362 18.3398 9.05644 19.5716 10.2957C20.8034 11.5349 21.4814 13.1822 21.4808 14.934C21.4792 18.5491 18.5526 21.4902 14.9564 21.4902ZM18.5351 16.58C18.3391 16.4813 17.3747 16.0046 17.1949 15.9387C17.0152 15.873 16.8843 15.8402 16.7537 16.0374C16.6229 16.2347 16.2471 16.6787 16.1326 16.8101C16.0181 16.9417 15.9038 16.9582 15.7076 16.8595C15.5115 16.7609 14.8795 16.5527 14.1303 15.8812C13.5473 15.3586 13.1537 14.7132 13.0392 14.5159C12.9249 14.3185 13.0382 14.2221 13.1252 14.1137C13.3376 13.8488 13.5502 13.571 13.6155 13.4395C13.681 13.308 13.6482 13.1928 13.5991 13.0942C13.5502 12.9956 13.1579 12.0255 12.9945 11.6307C12.8352 11.2466 12.6736 11.2985 12.5532 11.2924C12.4389 11.2867 12.3081 11.2855 12.1772 11.2855C12.0465 11.2855 11.834 11.3348 11.6542 11.5322C11.4744 11.7295 10.9678 12.2063 10.9678 13.1764C10.9678 14.1465 11.6706 15.0837 11.7686 15.2153C11.8667 15.3468 13.1517 17.3376 15.1192 18.1912C15.5872 18.3945 15.9525 18.5156 16.2374 18.6065C16.7073 18.7565 17.1347 18.7353 17.4728 18.6846C17.8496 18.628 18.6331 18.2078 18.7967 17.7474C18.9601 17.287 18.9601 16.8924 18.911 16.8101C18.862 16.7279 18.7312 16.6787 18.5351 16.58Z" fill="#BD2D43"/>
</svg>
