<svg width="24" height="23" viewBox="0 0 24 23" fill="none" xmlns="http://www.w3.org/2000/svg">
<path d="M12.0003 0.0110856C7.08512 0.0110856 2.41766 -0.4076 0.634874 3.9737C-0.101523 5.78325 0.00541729 8.13334 0.00541729 11.4984C0.00541729 14.4512 -0.0934008 17.2265 0.634874 19.0218C2.4136 23.4057 7.11896 22.9857 11.9976 22.9857C16.7043 22.9857 21.5572 23.4549 23.3617 19.0218C24.0994 17.1941 23.9911 14.879 23.9911 11.4984C23.9911 7.01079 24.2497 4.11369 21.9769 1.9386C19.6756 -0.265014 16.5635 0.0110856 11.9949 0.0110856H12.0003ZM10.9255 2.08118C21.1782 2.06563 22.4831 0.974195 21.763 16.1363C21.5071 21.4989 17.2431 20.9104 12.0016 20.9104C2.44473 20.9104 2.16994 20.6486 2.16994 11.4932C2.16994 2.23155 2.92799 2.08637 10.9255 2.07859V2.08118ZM18.4032 3.98796C17.6086 3.98796 16.9642 4.60497 16.9642 5.36586C16.9642 6.12675 17.6086 6.74377 18.4032 6.74377C19.1978 6.74377 19.8421 6.12675 19.8421 5.36586C19.8421 4.60497 19.1978 3.98796 18.4032 3.98796ZM12.0003 5.59918C8.59852 5.59918 5.84109 8.24093 5.84109 11.4984C5.84109 14.7558 8.59852 17.3963 12.0003 17.3963C15.4021 17.3963 18.1581 14.7558 18.1581 11.4984C18.1581 8.24093 15.4021 5.59918 12.0003 5.59918ZM12.0003 7.66928C17.2864 7.66928 17.2932 15.3275 12.0003 15.3275C6.71557 15.3275 6.70744 7.66928 12.0003 7.66928Z" fill="white"/>
</svg>
