<svg width="25" height="21" viewBox="0 0 25 21" fill="none" xmlns="http://www.w3.org/2000/svg">
<path d="M24.251 0.513672C24.3237 0.486528 24.3924 0.503002 24.4424 0.543945C24.4914 0.584054 24.5072 0.632983 24.4961 0.68457L20.2539 20.373C20.2435 20.4215 20.2093 20.4646 20.1484 20.4873C20.0871 20.5102 20.0203 20.503 19.9658 20.4648L14.1748 16.4082C13.6761 16.0589 13.0104 16.0544 12.5088 16.3857L12.4111 16.4561L9.19922 18.9814V18.9824C9.14926 19.0217 9.08517 19.0326 9.02344 19.0146C8.96194 18.9967 8.92272 18.9563 8.90723 18.9082L6.67773 11.9902L6.60254 11.7568L6.37109 11.6729L0.610352 9.59863C0.562435 9.58105 0.538005 9.55701 0.524414 9.53711C0.509238 9.5148 0.500223 9.48662 0.5 9.45605C0.499821 9.4254 0.508688 9.39717 0.523438 9.375C0.536674 9.35516 0.560808 9.33057 0.609375 9.3125L24.251 0.513672ZM19.9824 4.08691C19.7943 3.84867 19.4228 3.71472 19.0762 3.91992H19.0752L7.81738 10.6094L7.81641 10.6104C7.23503 10.9567 6.9301 11.6233 7.06445 12.2803L7.09766 12.4121L8.31445 16.5381C8.4361 16.9497 8.81502 17.1204 9.12988 17.0986C9.44563 17.0767 9.79897 16.8532 9.8584 16.4248L9.85742 16.4238L10.1748 14.1631C10.2178 13.8564 10.3687 13.5697 10.6094 13.3535L10.6104 13.3545L19.9014 5.02148L19.9004 5.02051C20.0393 4.89594 20.1244 4.72634 20.1318 4.54004C20.1388 4.36289 20.0752 4.2045 19.9824 4.08691Z" stroke="white"/>
</svg>
