<svg width="26" height="26" viewBox="0 0 26 26" fill="none" xmlns="http://www.w3.org/2000/svg">
<path d="M12.54 0.5H12.5459C19.1854 0.5 24.5859 5.90313 24.5859 12.543C24.5859 19.1828 19.1854 24.5859 12.5459 24.5859C10.096 24.5859 7.82567 23.8569 5.92188 22.5957L5.72168 22.4639L5.49316 22.5371L1.6123 23.7773L2.8623 20.0537L2.94434 19.8086L2.79199 19.6006C1.34875 17.6186 0.500023 15.1777 0.5 12.543C0.5 5.9016 5.90048 0.5 12.54 0.5ZM7.82031 5.23633C7.30202 5.23636 6.69472 5.3768 6.26465 5.75781L6.18066 5.83691C5.79142 6.23444 4.7559 7.23398 4.75586 9.23926C4.75586 10.2518 5.12199 11.2193 5.48828 11.9414C5.67318 12.3059 5.86379 12.619 6.01953 12.8564L6.34082 13.3174L6.34668 13.3252C6.34668 13.3252 6.35041 13.33 6.35938 13.3428C6.36812 13.3552 6.37935 13.372 6.39355 13.3926C6.42137 13.4328 6.45928 13.4874 6.50488 13.5527C6.59684 13.6845 6.7228 13.8613 6.87988 14.0713C7.19406 14.4912 7.63496 15.0448 8.18848 15.6396C9.29058 16.8239 10.8627 18.1981 12.7979 19C14.2549 19.6041 15.2307 19.892 15.9424 20.0049C16.6754 20.1211 17.1181 20.0503 17.4873 19.9717L17.4883 19.9707C18.0323 19.8532 18.6312 19.598 19.1396 19.2539C19.5767 18.9581 19.9945 18.5641 20.2275 18.0879L20.3154 17.8789C20.481 17.4104 20.5662 16.9721 20.5967 16.6221C20.6118 16.4478 20.6135 16.2881 20.6035 16.1523C20.5954 16.0421 20.5752 15.8689 20.4941 15.7256L20.4922 15.7227L20.4443 15.6494C20.3263 15.4883 20.165 15.3914 20.0527 15.3301C19.9287 15.2624 19.7337 15.1723 19.583 15.0967L19.5811 15.0957C19.3955 15.0033 18.8538 14.7356 18.3154 14.4756C17.8054 14.2292 17.2492 13.9666 17.0352 13.8896L17.0361 13.8887C16.8055 13.8017 16.5338 13.7561 16.2529 13.8291C16.0012 13.8946 15.7901 14.0433 15.6211 14.249L15.5508 14.3408C15.1859 14.8516 14.867 15.3127 14.6152 15.585C14.5938 15.6078 14.5583 15.6298 14.5 15.6377C14.439 15.6459 14.3621 15.637 14.2861 15.6055H14.2871C13.8844 15.4376 12.8183 15.0657 11.4863 13.8799C10.4644 12.9702 9.76013 11.8274 9.55078 11.4736H9.55176C9.53633 11.447 9.53031 11.4292 9.52734 11.4199C9.53151 11.4125 9.53892 11.4025 9.54883 11.3887C9.57225 11.3559 9.59962 11.3227 9.64648 11.2676L9.26562 10.9434L9.64746 11.2676L9.65527 11.2578C9.73566 11.1584 9.81529 11.0713 9.90332 10.9775C9.98907 10.8862 10.0887 10.7821 10.1895 10.666C10.3713 10.4564 10.5191 10.2965 10.6699 9.97461C10.9009 9.50717 10.7086 9.06148 10.6143 8.86621C10.5255 8.67592 9.80684 6.92034 9.49902 6.17871L9.49805 6.17773L9.39453 5.95215C9.2841 5.737 9.14918 5.55396 8.95898 5.42969C8.70398 5.26323 8.42532 5.25794 8.26172 5.25098H8.26074C8.13996 5.24491 7.98836 5.23633 7.82031 5.23633Z" stroke="white"/>
</svg>
